<svg width="49" height="49" viewBox="0 0 49 49" fill="none" xmlns="http://www.w3.org/2000/svg">
<path d="M30.625 19.9063V16.8438C30.625 16.0315 30.3024 15.2526 29.728 14.6782C29.1537 14.1039 28.3747 13.7812 27.5625 13.7812H21.4375C20.6253 13.7812 19.8463 14.1039 19.272 14.6782C18.6977 15.2526 18.375 16.0315 18.375 16.8438V18.375C18.3734 18.8507 18.4834 19.3202 18.6962 19.7457C18.9089 20.1712 19.2185 20.5408 19.6 20.825L29.4 28.175C29.7816 28.4592 30.0911 28.8288 30.3039 29.2543C30.5166 29.6798 30.6266 30.1493 30.625 30.625V32.1563C30.625 32.9685 30.3024 33.7474 29.728 34.3218C29.1537 34.8961 28.3747 35.2188 27.5625 35.2188H21.4375C20.6253 35.2188 19.8463 34.8961 19.272 34.3218C18.6977 33.7474 18.375 32.9685 18.375 32.1563V29.0938" stroke="#23A6F0" stroke-width="1.5" stroke-linecap="round" stroke-linejoin="round"/>
<path d="M24.5 10.7188V38.2813" stroke="#23A6F0" stroke-width="1.5" stroke-linecap="round" stroke-linejoin="round"/>
<path d="M34.7083 6.125H14.2917C9.78134 6.125 6.125 9.78134 6.125 14.2917V34.7083C6.125 39.2187 9.78134 42.875 14.2917 42.875H34.7083C39.2187 42.875 42.875 39.2187 42.875 34.7083V14.2917C42.875 9.78134 39.2187 6.125 34.7083 6.125Z" stroke="#23A6F0" stroke-width="1.5" stroke-linecap="round" stroke-linejoin="round"/>
</svg>
