<svg width="49" height="49" viewBox="0 0 49 49" fill="none" xmlns="http://www.w3.org/2000/svg">
<path d="M22.458 20.0288C25.8408 20.0288 28.583 17.2866 28.583 13.9038C28.583 10.5211 25.8408 7.77881 22.458 7.77881C19.0753 7.77881 16.333 10.5211 16.333 13.9038C16.333 17.2866 19.0753 20.0288 22.458 20.0288Z" stroke="#23A6F0" stroke-width="1.5" stroke-linecap="round" stroke-linejoin="round"/>
<path d="M7.14551 41.2212C7.14551 37.1601 8.75878 33.2653 11.6304 30.3936C14.5021 27.522 18.3969 25.9087 22.458 25.9087C26.5191 25.9087 30.4139 27.522 33.2856 30.3936C36.1572 33.2653 37.7705 37.1601 37.7705 41.2212" stroke="#23A6F0" stroke-width="1.5" stroke-linecap="round" stroke-linejoin="round"/>
<path d="M36.75 25.5209C38.6343 26.725 40.1839 28.3857 41.2547 30.3488C42.3255 32.312 42.8828 34.5139 42.875 36.75" stroke="#23A6F0" stroke-width="1.5" stroke-linecap="round" stroke-linejoin="round"/>
<path d="M32.4629 8.79956C33.8166 8.79956 35.1149 9.33732 36.0721 10.2945C37.0293 11.2518 37.5671 12.55 37.5671 13.9037C37.5671 15.2574 37.0293 16.5557 36.0721 17.5129C35.1149 18.4701 33.8166 19.0079 32.4629 19.0079" stroke="#23A6F0" stroke-width="1.5" stroke-linecap="round" stroke-linejoin="round"/>
</svg>
