<svg width="24" height="23" viewBox="0 0 24 23" fill="none" xmlns="http://www.w3.org/2000/svg">
<path d="M0 2.66409C0 1.89188 0.270278 1.25481 0.810811 0.752896C1.35134 0.250958 2.05406 0 2.91892 0C3.76835 0 4.45559 0.247089 4.9807 0.741313C5.52123 1.25097 5.79151 1.91504 5.79151 2.73359C5.79151 3.4749 5.52897 4.09265 5.00386 4.58687C4.46333 5.09652 3.7529 5.35135 2.87259 5.35135H2.84942C1.99999 5.35135 1.31275 5.09652 0.787645 4.58687C0.262541 4.07722 0 3.43629 0 2.66409ZM0.301158 22.9344V7.45946H5.44402V22.9344H0.301158ZM8.29344 22.9344H13.4363V14.2934C13.4363 13.7529 13.4981 13.3359 13.6216 13.0425C13.8378 12.5174 14.166 12.0733 14.6062 11.7104C15.0463 11.3475 15.5984 11.166 16.2625 11.166C17.9923 11.166 18.8571 12.332 18.8571 14.6641V22.9344H24V14.0618C24 11.7761 23.4595 10.0425 22.3784 8.861C21.2973 7.67954 19.8687 7.0888 18.0927 7.0888C16.1004 7.0888 14.5483 7.94595 13.4363 9.66023V9.70656H13.4131L13.4363 9.66023V7.45946H8.29344C8.32432 7.95366 8.33977 9.49033 8.33977 12.0695C8.33977 14.6486 8.32432 18.2703 8.29344 22.9344Z" fill="#0A66C2"/>
</svg>
